<mxfile>
    <diagram id="k9tIBhYgvrCqa4gGzxla" name="V1">
        <mxGraphModel dx="1705" dy="642" grid="1" gridSize="10" guides="1" tooltips="1" connect="1" arrows="1" fold="1" page="0" pageScale="1" pageWidth="827" pageHeight="1169" math="0" shadow="0">
            <root>
                <mxCell id="0"/>
                <mxCell id="1" parent="0"/>
                <mxCell id="JGpdm1JY5dBa179Jj-7R-45" style="rounded=0;orthogonalLoop=1;jettySize=auto;html=1;exitX=0.5;exitY=0;exitDx=0;exitDy=0;entryX=0.5;entryY=1;entryDx=0;entryDy=0;startArrow=classic;startFill=1;endArrow=none;endFill=0;" parent="1" source="JGpdm1JY5dBa179Jj-7R-4" target="JGpdm1JY5dBa179Jj-7R-17" edge="1">
                    <mxGeometry relative="1" as="geometry"/>
                </mxCell>
                <mxCell id="JGpdm1JY5dBa179Jj-7R-49" style="rounded=0;orthogonalLoop=1;jettySize=auto;html=1;exitX=0.5;exitY=0;exitDx=0;exitDy=0;startArrow=classic;startFill=1;" parent="1" source="JGpdm1JY5dBa179Jj-7R-4" target="JGpdm1JY5dBa179Jj-7R-21" edge="1">
                    <mxGeometry relative="1" as="geometry"/>
                </mxCell>
                <mxCell id="JGpdm1JY5dBa179Jj-7R-54" style="rounded=0;orthogonalLoop=1;jettySize=auto;html=1;exitX=0.5;exitY=0;exitDx=0;exitDy=0;startArrow=classic;startFill=1;entryX=0.502;entryY=1.09;entryDx=0;entryDy=0;entryPerimeter=0;" parent="1" source="JGpdm1JY5dBa179Jj-7R-4" target="JGpdm1JY5dBa179Jj-7R-32" edge="1">
                    <mxGeometry relative="1" as="geometry"/>
                </mxCell>
                <mxCell id="JGpdm1JY5dBa179Jj-7R-4" value="Endgerät 1: User 1" style="whiteSpace=wrap;html=1;align=center;" parent="1" vertex="1">
                    <mxGeometry x="-180" y="320" width="120" height="40" as="geometry"/>
                </mxCell>
                <mxCell id="JGpdm1JY5dBa179Jj-7R-46" style="rounded=0;orthogonalLoop=1;jettySize=auto;html=1;exitX=0.5;exitY=0;exitDx=0;exitDy=0;entryX=0.5;entryY=1;entryDx=0;entryDy=0;startArrow=classic;startFill=1;endArrow=none;endFill=0;" parent="1" source="JGpdm1JY5dBa179Jj-7R-5" target="JGpdm1JY5dBa179Jj-7R-17" edge="1">
                    <mxGeometry relative="1" as="geometry"/>
                </mxCell>
                <mxCell id="JGpdm1JY5dBa179Jj-7R-50" style="rounded=0;orthogonalLoop=1;jettySize=auto;html=1;exitX=0.5;exitY=0;exitDx=0;exitDy=0;startArrow=classic;startFill=1;" parent="1" source="JGpdm1JY5dBa179Jj-7R-5" edge="1">
                    <mxGeometry relative="1" as="geometry">
                        <mxPoint x="-120" y="200" as="targetPoint"/>
                    </mxGeometry>
                </mxCell>
                <mxCell id="JGpdm1JY5dBa179Jj-7R-53" style="rounded=0;orthogonalLoop=1;jettySize=auto;html=1;exitX=0.5;exitY=0;exitDx=0;exitDy=0;startArrow=classic;startFill=1;entryX=0.514;entryY=1.059;entryDx=0;entryDy=0;entryPerimeter=0;" parent="1" source="JGpdm1JY5dBa179Jj-7R-5" target="JGpdm1JY5dBa179Jj-7R-32" edge="1">
                    <mxGeometry relative="1" as="geometry"/>
                </mxCell>
                <mxCell id="JGpdm1JY5dBa179Jj-7R-5" value="Endgerät 2: User 1" style="whiteSpace=wrap;html=1;align=center;" parent="1" vertex="1">
                    <mxGeometry x="20" y="320" width="120" height="40" as="geometry"/>
                </mxCell>
                <mxCell id="JGpdm1JY5dBa179Jj-7R-47" style="rounded=0;orthogonalLoop=1;jettySize=auto;html=1;exitX=0.5;exitY=0;exitDx=0;exitDy=0;entryX=0.5;entryY=1;entryDx=0;entryDy=0;startArrow=classic;startFill=1;endArrow=none;endFill=0;" parent="1" source="JGpdm1JY5dBa179Jj-7R-6" target="JGpdm1JY5dBa179Jj-7R-17" edge="1">
                    <mxGeometry relative="1" as="geometry"/>
                </mxCell>
                <mxCell id="JGpdm1JY5dBa179Jj-7R-51" style="rounded=0;orthogonalLoop=1;jettySize=auto;html=1;exitX=0.5;exitY=0;exitDx=0;exitDy=0;startArrow=classic;startFill=1;entryX=0.502;entryY=1.046;entryDx=0;entryDy=0;entryPerimeter=0;" parent="1" source="JGpdm1JY5dBa179Jj-7R-6" target="JGpdm1JY5dBa179Jj-7R-24" edge="1">
                    <mxGeometry relative="1" as="geometry"/>
                </mxCell>
                <mxCell id="JGpdm1JY5dBa179Jj-7R-52" style="rounded=0;orthogonalLoop=1;jettySize=auto;html=1;exitX=0.5;exitY=0;exitDx=0;exitDy=0;startArrow=classic;startFill=1;" parent="1" source="JGpdm1JY5dBa179Jj-7R-6" target="JGpdm1JY5dBa179Jj-7R-29" edge="1">
                    <mxGeometry relative="1" as="geometry"/>
                </mxCell>
                <mxCell id="JGpdm1JY5dBa179Jj-7R-6" value="Endgerät 3: User 2" style="whiteSpace=wrap;html=1;align=center;" parent="1" vertex="1">
                    <mxGeometry x="220" y="320" width="120" height="40" as="geometry"/>
                </mxCell>
                <mxCell id="JGpdm1JY5dBa179Jj-7R-41" style="edgeStyle=orthogonalEdgeStyle;rounded=0;orthogonalLoop=1;jettySize=auto;html=1;exitX=0.5;exitY=0;exitDx=0;exitDy=0;exitPerimeter=0;entryX=0.5;entryY=1;entryDx=0;entryDy=0;startArrow=classic;startFill=1;" parent="1" source="JGpdm1JY5dBa179Jj-7R-7" target="JGpdm1JY5dBa179Jj-7R-4" edge="1">
                    <mxGeometry relative="1" as="geometry"/>
                </mxCell>
                <mxCell id="JGpdm1JY5dBa179Jj-7R-61" value="store Data" style="edgeLabel;html=1;align=center;verticalAlign=middle;resizable=0;points=[];" parent="JGpdm1JY5dBa179Jj-7R-41" vertex="1" connectable="0">
                    <mxGeometry x="0.0125" y="1" relative="1" as="geometry">
                        <mxPoint as="offset"/>
                    </mxGeometry>
                </mxCell>
                <mxCell id="JGpdm1JY5dBa179Jj-7R-7" value="Indexed&lt;br&gt;DB" style="strokeWidth=2;html=1;shape=mxgraph.flowchart.database;whiteSpace=wrap;" parent="1" vertex="1">
                    <mxGeometry x="-180" y="470" width="120" height="100" as="geometry"/>
                </mxCell>
                <mxCell id="JGpdm1JY5dBa179Jj-7R-42" style="edgeStyle=orthogonalEdgeStyle;rounded=0;orthogonalLoop=1;jettySize=auto;html=1;exitX=0.5;exitY=0;exitDx=0;exitDy=0;exitPerimeter=0;entryX=0.5;entryY=1;entryDx=0;entryDy=0;startArrow=classic;startFill=1;" parent="1" source="JGpdm1JY5dBa179Jj-7R-8" target="JGpdm1JY5dBa179Jj-7R-5" edge="1">
                    <mxGeometry relative="1" as="geometry"/>
                </mxCell>
                <mxCell id="JGpdm1JY5dBa179Jj-7R-62" value="store Data" style="edgeLabel;html=1;align=center;verticalAlign=middle;resizable=0;points=[];" parent="JGpdm1JY5dBa179Jj-7R-42" vertex="1" connectable="0">
                    <mxGeometry x="0.0333" relative="1" as="geometry">
                        <mxPoint as="offset"/>
                    </mxGeometry>
                </mxCell>
                <mxCell id="JGpdm1JY5dBa179Jj-7R-8" value="Indexed&lt;br&gt;DB" style="strokeWidth=2;html=1;shape=mxgraph.flowchart.database;whiteSpace=wrap;" parent="1" vertex="1">
                    <mxGeometry x="20" y="470" width="120" height="100" as="geometry"/>
                </mxCell>
                <mxCell id="JGpdm1JY5dBa179Jj-7R-43" style="edgeStyle=orthogonalEdgeStyle;rounded=0;orthogonalLoop=1;jettySize=auto;html=1;exitX=0.5;exitY=0;exitDx=0;exitDy=0;exitPerimeter=0;entryX=0.5;entryY=1;entryDx=0;entryDy=0;startArrow=classic;startFill=1;" parent="1" source="JGpdm1JY5dBa179Jj-7R-9" target="JGpdm1JY5dBa179Jj-7R-6" edge="1">
                    <mxGeometry relative="1" as="geometry"/>
                </mxCell>
                <mxCell id="JGpdm1JY5dBa179Jj-7R-63" value="store Data" style="edgeLabel;html=1;align=center;verticalAlign=middle;resizable=0;points=[];" parent="JGpdm1JY5dBa179Jj-7R-43" vertex="1" connectable="0">
                    <mxGeometry x="0.0958" y="-1" relative="1" as="geometry">
                        <mxPoint as="offset"/>
                    </mxGeometry>
                </mxCell>
                <mxCell id="JGpdm1JY5dBa179Jj-7R-9" value="Indexed&lt;br&gt;DB" style="strokeWidth=2;html=1;shape=mxgraph.flowchart.database;whiteSpace=wrap;" parent="1" vertex="1">
                    <mxGeometry x="220" y="470" width="120" height="100" as="geometry"/>
                </mxCell>
                <mxCell id="JGpdm1JY5dBa179Jj-7R-36" style="edgeStyle=orthogonalEdgeStyle;rounded=0;orthogonalLoop=1;jettySize=auto;html=1;exitX=1;exitY=0.5;exitDx=0;exitDy=0;entryX=0;entryY=0.5;entryDx=0;entryDy=0;startArrow=classic;startFill=1;" parent="1" source="JGpdm1JY5dBa179Jj-7R-14" target="JGpdm1JY5dBa179Jj-7R-15" edge="1">
                    <mxGeometry relative="1" as="geometry"/>
                </mxCell>
                <mxCell id="JGpdm1JY5dBa179Jj-7R-67" value="connect to" style="edgeLabel;html=1;align=center;verticalAlign=middle;resizable=0;points=[];" parent="JGpdm1JY5dBa179Jj-7R-36" vertex="1" connectable="0">
                    <mxGeometry x="-0.0708" relative="1" as="geometry">
                        <mxPoint y="-10" as="offset"/>
                    </mxGeometry>
                </mxCell>
                <mxCell id="JGpdm1JY5dBa179Jj-7R-40" style="edgeStyle=orthogonalEdgeStyle;rounded=0;orthogonalLoop=1;jettySize=auto;html=1;exitX=0.5;exitY=0;exitDx=0;exitDy=0;entryX=0.5;entryY=1;entryDx=0;entryDy=0;entryPerimeter=0;startArrow=classic;startFill=1;" parent="1" source="JGpdm1JY5dBa179Jj-7R-14" target="JGpdm1JY5dBa179Jj-7R-7" edge="1">
                    <mxGeometry relative="1" as="geometry"/>
                </mxCell>
                <mxCell id="JGpdm1JY5dBa179Jj-7R-64" value="send or recieve data via" style="edgeLabel;html=1;align=center;verticalAlign=middle;resizable=0;points=[];" parent="JGpdm1JY5dBa179Jj-7R-40" vertex="1" connectable="0">
                    <mxGeometry x="0.075" relative="1" as="geometry">
                        <mxPoint as="offset"/>
                    </mxGeometry>
                </mxCell>
                <mxCell id="JGpdm1JY5dBa179Jj-7R-44" style="edgeStyle=orthogonalEdgeStyle;rounded=0;orthogonalLoop=1;jettySize=auto;html=1;exitX=0.5;exitY=1;exitDx=0;exitDy=0;entryX=0.5;entryY=1;entryDx=0;entryDy=0;startArrow=classic;startFill=1;" parent="1" source="JGpdm1JY5dBa179Jj-7R-14" target="JGpdm1JY5dBa179Jj-7R-16" edge="1">
                    <mxGeometry relative="1" as="geometry"/>
                </mxCell>
                <mxCell id="JGpdm1JY5dBa179Jj-7R-68" value="connect to" style="edgeLabel;html=1;align=center;verticalAlign=middle;resizable=0;points=[];" parent="JGpdm1JY5dBa179Jj-7R-44" vertex="1" connectable="0">
                    <mxGeometry x="-0.0242" y="1" relative="1" as="geometry">
                        <mxPoint as="offset"/>
                    </mxGeometry>
                </mxCell>
                <mxCell id="JGpdm1JY5dBa179Jj-7R-14" value="PeerJS" style="ellipse;whiteSpace=wrap;html=1;align=center;" parent="1" vertex="1">
                    <mxGeometry x="-180" y="650" width="120" height="40" as="geometry"/>
                </mxCell>
                <mxCell id="JGpdm1JY5dBa179Jj-7R-37" style="edgeStyle=orthogonalEdgeStyle;rounded=0;orthogonalLoop=1;jettySize=auto;html=1;exitX=1;exitY=0.5;exitDx=0;exitDy=0;entryX=0;entryY=0.5;entryDx=0;entryDy=0;startArrow=classic;startFill=1;" parent="1" source="JGpdm1JY5dBa179Jj-7R-15" target="JGpdm1JY5dBa179Jj-7R-16" edge="1">
                    <mxGeometry relative="1" as="geometry"/>
                </mxCell>
                <mxCell id="JGpdm1JY5dBa179Jj-7R-69" value="connect to" style="edgeLabel;html=1;align=center;verticalAlign=middle;resizable=0;points=[];" parent="JGpdm1JY5dBa179Jj-7R-37" vertex="1" connectable="0">
                    <mxGeometry x="-0.3625" relative="1" as="geometry">
                        <mxPoint x="14.17" y="-10" as="offset"/>
                    </mxGeometry>
                </mxCell>
                <mxCell id="JGpdm1JY5dBa179Jj-7R-39" style="edgeStyle=orthogonalEdgeStyle;rounded=0;orthogonalLoop=1;jettySize=auto;html=1;exitX=0.5;exitY=0;exitDx=0;exitDy=0;entryX=0.5;entryY=1;entryDx=0;entryDy=0;entryPerimeter=0;startArrow=classic;startFill=1;" parent="1" source="JGpdm1JY5dBa179Jj-7R-15" target="JGpdm1JY5dBa179Jj-7R-8" edge="1">
                    <mxGeometry relative="1" as="geometry"/>
                </mxCell>
                <mxCell id="JGpdm1JY5dBa179Jj-7R-65" value="send or recieve data via" style="edgeLabel;html=1;align=center;verticalAlign=middle;resizable=0;points=[];" parent="JGpdm1JY5dBa179Jj-7R-39" vertex="1" connectable="0">
                    <mxGeometry x="0.0542" y="1" relative="1" as="geometry">
                        <mxPoint as="offset"/>
                    </mxGeometry>
                </mxCell>
                <mxCell id="JGpdm1JY5dBa179Jj-7R-15" value="PeerJS" style="ellipse;whiteSpace=wrap;html=1;align=center;" parent="1" vertex="1">
                    <mxGeometry x="20" y="650" width="120" height="40" as="geometry"/>
                </mxCell>
                <mxCell id="JGpdm1JY5dBa179Jj-7R-38" style="edgeStyle=orthogonalEdgeStyle;rounded=0;orthogonalLoop=1;jettySize=auto;html=1;exitX=0.5;exitY=0;exitDx=0;exitDy=0;entryX=0.5;entryY=1;entryDx=0;entryDy=0;entryPerimeter=0;startArrow=classic;startFill=1;" parent="1" source="JGpdm1JY5dBa179Jj-7R-16" target="JGpdm1JY5dBa179Jj-7R-9" edge="1">
                    <mxGeometry relative="1" as="geometry"/>
                </mxCell>
                <mxCell id="JGpdm1JY5dBa179Jj-7R-66" value="send or recieve data via" style="edgeLabel;html=1;align=center;verticalAlign=middle;resizable=0;points=[];" parent="JGpdm1JY5dBa179Jj-7R-38" vertex="1" connectable="0">
                    <mxGeometry x="0.0542" y="1" relative="1" as="geometry">
                        <mxPoint as="offset"/>
                    </mxGeometry>
                </mxCell>
                <mxCell id="JGpdm1JY5dBa179Jj-7R-16" value="PeerJS" style="ellipse;whiteSpace=wrap;html=1;align=center;" parent="1" vertex="1">
                    <mxGeometry x="220" y="650" width="120" height="40" as="geometry"/>
                </mxCell>
                <mxCell id="JGpdm1JY5dBa179Jj-7R-17" value="PwaProvider" style="swimlane;fontStyle=0;childLayout=stackLayout;horizontal=1;startSize=26;horizontalStack=0;resizeParent=1;resizeParentMax=0;resizeLast=0;collapsible=1;marginBottom=0;align=center;fontSize=14;" parent="1" vertex="1">
                    <mxGeometry y="110" width="160" height="56" as="geometry"/>
                </mxCell>
                <mxCell id="JGpdm1JY5dBa179Jj-7R-18" value="- VueJs Frontend" style="text;strokeColor=none;fillColor=none;spacingLeft=4;spacingRight=4;overflow=hidden;rotatable=0;points=[[0,0.5],[1,0.5]];portConstraint=eastwest;fontSize=12;" parent="JGpdm1JY5dBa179Jj-7R-17" vertex="1">
                    <mxGeometry y="26" width="160" height="30" as="geometry"/>
                </mxCell>
                <mxCell id="JGpdm1JY5dBa179Jj-7R-21" value="PeerBroker" style="swimlane;fontStyle=0;childLayout=stackLayout;horizontal=1;startSize=26;horizontalStack=0;resizeParent=1;resizeParentMax=0;resizeLast=0;collapsible=1;marginBottom=0;align=center;fontSize=14;" parent="1" vertex="1">
                    <mxGeometry x="-200" y="110" width="160" height="90" as="geometry"/>
                </mxCell>
                <mxCell id="JGpdm1JY5dBa179Jj-7R-23" value="- NodeJs Backend" style="text;strokeColor=none;fillColor=none;spacingLeft=4;spacingRight=4;overflow=hidden;rotatable=0;points=[[0,0.5],[1,0.5]];portConstraint=eastwest;fontSize=12;" parent="JGpdm1JY5dBa179Jj-7R-21" vertex="1">
                    <mxGeometry y="26" width="160" height="30" as="geometry"/>
                </mxCell>
                <mxCell id="JGpdm1JY5dBa179Jj-7R-24" value="- PeerJs Framework" style="text;strokeColor=none;fillColor=none;spacingLeft=4;spacingRight=4;overflow=hidden;rotatable=0;points=[[0,0.5],[1,0.5]];portConstraint=eastwest;fontSize=12;" parent="JGpdm1JY5dBa179Jj-7R-21" vertex="1">
                    <mxGeometry y="56" width="160" height="34" as="geometry"/>
                </mxCell>
                <mxCell id="JGpdm1JY5dBa179Jj-7R-29" value="UserController" style="swimlane;fontStyle=0;childLayout=stackLayout;horizontal=1;startSize=26;horizontalStack=0;resizeParent=1;resizeParentMax=0;resizeLast=0;collapsible=1;marginBottom=0;align=center;fontSize=14;" parent="1" vertex="1">
                    <mxGeometry x="200" y="110" width="160" height="86" as="geometry"/>
                </mxCell>
                <mxCell id="JGpdm1JY5dBa179Jj-7R-31" value="- NodeJs Backend" style="text;strokeColor=none;fillColor=none;spacingLeft=4;spacingRight=4;overflow=hidden;rotatable=0;points=[[0,0.5],[1,0.5]];portConstraint=eastwest;fontSize=12;" parent="JGpdm1JY5dBa179Jj-7R-29" vertex="1">
                    <mxGeometry y="26" width="160" height="30" as="geometry"/>
                </mxCell>
                <mxCell id="JGpdm1JY5dBa179Jj-7R-32" value="- MongoDB Database" style="text;strokeColor=none;fillColor=none;spacingLeft=4;spacingRight=4;overflow=hidden;rotatable=0;points=[[0,0.5],[1,0.5]];portConstraint=eastwest;fontSize=12;" parent="JGpdm1JY5dBa179Jj-7R-29" vertex="1">
                    <mxGeometry y="56" width="160" height="30" as="geometry"/>
                </mxCell>
                <mxCell id="JGpdm1JY5dBa179Jj-7R-33" value="Needed for establishing P2P Connections between clients" style="shape=note;size=20;whiteSpace=wrap;html=1;" parent="1" vertex="1">
                    <mxGeometry x="-200" width="100" height="100" as="geometry"/>
                </mxCell>
                <mxCell id="JGpdm1JY5dBa179Jj-7R-34" value="Needed for UserInterface" style="shape=note;size=20;whiteSpace=wrap;html=1;" parent="1" vertex="1">
                    <mxGeometry width="100" height="100" as="geometry"/>
                </mxCell>
                <mxCell id="JGpdm1JY5dBa179Jj-7R-35" value="Needed for synchronization between clients and devices" style="shape=note;size=20;whiteSpace=wrap;html=1;" parent="1" vertex="1">
                    <mxGeometry x="200" width="100" height="100" as="geometry"/>
                </mxCell>
                <mxCell id="JGpdm1JY5dBa179Jj-7R-57" value="Deliver PWA" style="text;html=1;align=center;verticalAlign=middle;whiteSpace=wrap;rounded=0;labelBackgroundColor=#ffffff;" parent="1" vertex="1">
                    <mxGeometry x="61" y="184" width="40" height="20" as="geometry"/>
                </mxCell>
                <mxCell id="JGpdm1JY5dBa179Jj-7R-59" value="Handle Search and User DeviceList" style="text;html=1;align=center;verticalAlign=middle;whiteSpace=wrap;rounded=0;labelBackgroundColor=#ffffff;" parent="1" vertex="1">
                    <mxGeometry x="200" y="210" width="110" height="40" as="geometry"/>
                </mxCell>
                <mxCell id="JGpdm1JY5dBa179Jj-7R-60" value="Deliver PeerID and establish com. between clients" style="text;html=1;align=center;verticalAlign=middle;whiteSpace=wrap;rounded=0;labelBackgroundColor=#ffffff;" parent="1" vertex="1">
                    <mxGeometry x="-140" y="210" width="110" height="40" as="geometry"/>
                </mxCell>
                <mxCell id="JGpdm1JY5dBa179Jj-7R-70" value="Encrypt data&lt;br&gt;and verify user is in friendlist or users device by hash" style="shape=note;size=20;whiteSpace=wrap;html=1;labelBackgroundColor=#ffffff;fillColor=#ffffff;" parent="1" vertex="1">
                    <mxGeometry x="400" y="630" width="100" height="100" as="geometry"/>
                </mxCell>
                <mxCell id="JGpdm1JY5dBa179Jj-7R-71" value="Save data persistant" style="shape=note;size=20;whiteSpace=wrap;html=1;labelBackgroundColor=#ffffff;fillColor=#ffffff;" parent="1" vertex="1">
                    <mxGeometry x="400" y="470" width="100" height="100" as="geometry"/>
                </mxCell>
                <mxCell id="JGpdm1JY5dBa179Jj-7R-72" value="Update Frontend dynamicly" style="shape=note;size=20;whiteSpace=wrap;html=1;labelBackgroundColor=#ffffff;fillColor=#ffffff;" parent="1" vertex="1">
                    <mxGeometry x="400" y="320" width="100" height="100" as="geometry"/>
                </mxCell>
            </root>
        </mxGraphModel>
    </diagram>
</mxfile>